<svg xmlns="http://www.w3.org/2000/svg" xmlns:xlink="http://www.w3.org/1999/xlink" viewBox="0 0 200 142"><defs><style>.cls-1{fill:none;}.cls-2{fill:#c1d3c3;}.cls-3{fill:#fff;}.cls-4{fill:#255649;}.cls-5{clip-path:url(#clip-path);}.cls-6{fill:#78a98a;}.cls-7{clip-path:url(#clip-path-2);}.cls-8{clip-path:url(#clip-path-3);}.cls-9{fill:#153c32;}.cls-10{fill:#f18f9c;}</style><clipPath id="clip-path"><ellipse class="cls-1" cx="99.68" cy="70.68" rx="48.32" ry="48.37"/></clipPath><clipPath id="clip-path-2"><path class="cls-1" d="M51.36,70.91c0,26.71,20.31,22.55,47,22.55S148,97.62,148,70.91a48.33,48.33,0,1,0-96.65,0Z"/></clipPath><clipPath id="clip-path-3"><path class="cls-1" d="M99.45,142a71.09,71.09,0,0,1-62.32-36.93l16-8.82a52.77,52.77,0,0,0,92.9-.63l16.17,8.6A71,71,0,0,1,99.45,142Z"/></clipPath></defs><title>Middel 22</title><g id="Laag_2" data-name="Laag 2"><g id="Laag_1-2" data-name="Laag 1"><ellipse class="cls-2" cx="99.68" cy="70.9" rx="48.32" ry="48.37"/><ellipse class="cls-3" cx="99.68" cy="70.9" rx="68.87" ry="68.93"/><path class="cls-4" d="M99.68,3.93a67,67,0,1,1-66.91,67,67,67,0,0,1,66.91-67m0-3.93a70.9,70.9,0,1,0,70.84,70.9A70.86,70.86,0,0,0,99.68,0Z"/><g class="cls-5"><rect class="cls-6" x="27.61" y="77.59" width="145.42" height="48.51"/></g><g class="cls-7"><ellipse class="cls-2" cx="99.68" cy="70.91" rx="48.32" ry="48.37"/><path class="cls-3" d="M78.07,26.39a51,51,0,0,0-7.59,4.48L99.68,72.1Z"/><path class="cls-3" d="M95,21.58a51.57,51.57,0,0,0-8.69,1.69L99.68,72.1Z"/><path class="cls-3" d="M63.78,36.59a50,50,0,0,0-5.61,6.79L99.68,72.1Z"/><path class="cls-3" d="M53.8,51a50.67,50.67,0,0,0-3,8.3L99.68,72.1Z"/><path class="cls-3" d="M140.88,42.88a50.33,50.33,0,0,0-5.71-6.71L99.68,72.1Z"/><path class="cls-3" d="M148.46,58.69a50.38,50.38,0,0,0-3.1-8.22L99.68,72.1Z"/><path class="cls-3" d="M112.46,23.18a50.79,50.79,0,0,0-8.66-1.54L99.68,72.1Z"/><path class="cls-3" d="M128.39,30.55a50.43,50.43,0,0,0-7.62-4.37L99.68,72.1Z"/><path class="cls-3" d="M121.3,117.8a50.35,50.35,0,0,0,7.58-4.48L99.69,72.1Z"/><path class="cls-3" d="M104.4,122.61a51.46,51.46,0,0,0,8.68-1.69L99.69,72.1Z"/><path class="cls-3" d="M135.59,107.61a50.58,50.58,0,0,0,5.61-6.79L99.69,72.1Z"/><path class="cls-3" d="M145.57,93.19a50.67,50.67,0,0,0,3-8.3L99.69,72.1Z"/><path class="cls-3" d="M58.49,101.32A50.24,50.24,0,0,0,64.2,108L99.69,72.1Z"/><path class="cls-3" d="M50.91,85.5A49.15,49.15,0,0,0,54,93.72L99.69,72.1Z"/><path class="cls-3" d="M86.91,121a49.66,49.66,0,0,0,8.66,1.54L99.69,72.1Z"/></g><path class="cls-4" d="M99.45,142a71.09,71.09,0,0,1-62.32-36.93l16-8.82a52.77,52.77,0,0,0,92.9-.63l16.17,8.6A71,71,0,0,1,99.45,142Z"/><path class="cls-4" d="M46.54,56.45l-3.67-.37L45,58l-2.76.8,3.45,1.28-.24,1-5.14-2,.19-.79,2.72-.73L41.1,55.73l.19-.79,5.48.5Z"/><path class="cls-4" d="M41.86,53.09l.3-1,5.2,1.64-.3.95Z"/><path class="cls-4" d="M42.58,50.77l.75-1.89a2.89,2.89,0,0,1,.81-1.18,2.29,2.29,0,0,1,1.23-.54,3,3,0,0,1,1.48.21,3,3,0,0,1,1.23.86,2.27,2.27,0,0,1,.53,1.23,2.92,2.92,0,0,1-.2,1.41l-.75,1.9Zm5-.22a1.49,1.49,0,0,0,0-1.29,2,2,0,0,0-1.11-.87A2.08,2.08,0,0,0,45,48.27a1.48,1.48,0,0,0-.88.93l-.38,1,3.42,1.35Z"/><path class="cls-4" d="M44.84,45.24l.93-1.82a3,3,0,0,1,.93-1.09A2.29,2.29,0,0,1,48,41.92a3.27,3.27,0,0,1,2.6,1.33,2.33,2.33,0,0,1,.4,1.27,2.94,2.94,0,0,1-.34,1.39l-.93,1.82Zm5,.26A1.48,1.48,0,0,0,50,44.23a2.07,2.07,0,0,0-1-1A2,2,0,0,0,47.54,43a1.48,1.48,0,0,0-1,.84l-.48.93,3.27,1.67Z"/><path class="cls-4" d="M47.64,40l1.86-3,.81.51L49,39.65l1,.62,1-1.62.82.51-1,1.62,1.18.75,1.35-2.16.82.52-1.9,3Z"/><path class="cls-4" d="M50.21,36l.59-.78,4.22.28-2.81-2.13.6-.8,4.35,3.3-.5.65-4.48-.27,3,2.26-.61.79Z"/><path class="cls-4" d="M54.83,30.28l.67-.74,4,3.7-.68.73Z"/><path class="cls-4" d="M56.45,28.5l.71-.67,4.11.94-2.43-2.55.73-.69,3.76,3.95-.59.57-4.39-1,2.58,2.71-.72.68Z"/><path class="cls-4" d="M62,23.5l1.64-1.21a2.92,2.92,0,0,1,1.31-.57,2.35,2.35,0,0,1,1.33.19,3,3,0,0,1,1.14,1A2.88,2.88,0,0,1,68,24.25a2.33,2.33,0,0,1-.2,1.33,3,3,0,0,1-.92,1.09l-1.64,1.21ZM66.34,26a1.47,1.47,0,0,0,.66-1.1,2,2,0,0,0-.47-1.33,2,2,0,0,0-1.14-.85,1.49,1.49,0,0,0-1.24.32l-.84.62,2.19,3Z"/><path class="cls-4" d="M66.79,20.05l3-1.82.51.83-2.11,1.29.61,1,1.63-1,.51.82-1.63,1L70,23.35,72.17,22l.51.82-3,1.87Z"/><path class="cls-4" d="M72.3,16.86l.89-.42,3.59,2.22-1.48-3.2.9-.42L78.5,20l-.74.34L73.92,18l1.58,3.39-.91.42Z"/><path class="cls-4" d="M81.66,17.45l-1.87.67v1.37l-.91.32V14l.89-.32,3.66,4.48-.91.33Zm-.59-.72-1.29-1.6v2.06Z"/><path class="cls-4" d="M83.27,13.61,81.78,14l-.26-.93L85.45,12l.26.93-1.48.41,1.2,4.33-1,.27Z"/><path class="cls-4" d="M87.82,16.51a2.65,2.65,0,0,1-.88-1.66l-.57-3.07,1-.18.52,2.81a3.82,3.82,0,0,0,.27.91,1.09,1.09,0,0,0,.48.51,1.25,1.25,0,0,0,.81.07,1.35,1.35,0,0,0,.73-.35,1,1,0,0,0,.26-.65,3.69,3.69,0,0,0-.07-1l-.52-2.81,1-.18L91.38,14a2.65,2.65,0,0,1-.23,1.87,2.53,2.53,0,0,1-3.33.62Z"/><path class="cls-4" d="M93.24,15.61a2.68,2.68,0,0,1-.72-1.74l-.26-3.11,1-.08.24,2.85a4,4,0,0,0,.19.93,1,1,0,0,0,.42.56,1.3,1.3,0,0,0,.8.14,1.23,1.23,0,0,0,.76-.28,1.07,1.07,0,0,0,.33-.62,4.11,4.11,0,0,0,0-.95l-.24-2.85,1-.08.26,3.1a2.6,2.6,0,0,1-.41,1.84,2.53,2.53,0,0,1-3.37.29Z"/><path class="cls-4" d="M98.25,10.32l2,0a2.06,2.06,0,0,1,1.37.43,1.53,1.53,0,0,1,.48,1.25,1.59,1.59,0,0,1-.26.92,1.63,1.63,0,0,1-.69.57l1.19,2.31h-1.11l-1-2.05h-1l0,2h-1ZM99.93,13q1.09,0,1.11-.87a.82.82,0,0,0-.23-.66,1.21,1.21,0,0,0-.81-.23l-.77,0,0,1.76Z"/><path class="cls-4" d="M104.49,14.44a.82.82,0,0,1-.19-.62.81.81,0,0,1,.3-.58.85.85,0,0,1,1.2.12A.81.81,0,0,1,106,14a.78.78,0,0,1-.31.57.85.85,0,0,1-1.19-.11Z"/><path class="cls-4" d="M108.6,10.89l1,.22.27,4,2-3.54.68.14.46,3.95,1.8-3.47,1,.21-2.68,5-.86-.18-.44-3.81-1.93,3.31-.93-.19Z"/><path class="cls-4" d="M116.78,12.78l3.31,1.07-.29.92L117.45,14l-.36,1.11,1.82.59-.3.92L116.79,16l-.43,1.33,2.43.78-.3.92L115.1,18Z"/><path class="cls-4" d="M120.06,19.44a2.41,2.41,0,0,1-.49-1.29,3.36,3.36,0,0,1,.28-1.51,3.1,3.1,0,0,1,.91-1.23,2.51,2.51,0,0,1,1.31-.52,3,3,0,0,1,1.5.25,4.13,4.13,0,0,1,.72.39,2.91,2.91,0,0,1,.54.48l-.46.84A3.39,3.39,0,0,0,123.2,16a1.66,1.66,0,0,0-1.41,0,2,2,0,0,0-.93,1.07,2.05,2.05,0,0,0-.13,1.44,1.51,1.51,0,0,0,1,1,3.4,3.4,0,0,0,.72.21l.38-.9-.69-.29.32-.76,1.61.68-.94,2.24a3,3,0,0,1-.83,0,4.07,4.07,0,0,1-1-.28A3,3,0,0,1,120.06,19.44Z"/><path class="cls-4" d="M131.33,19.24,127,23l-.82-.46,1-5.7.88.49-.74,4.18,3.19-2.8Z"/><path class="cls-4" d="M131.82,24.57l-1.65-1.1-1.1.82-.8-.54,4.65-3.45.78.53-1.43,5.61-.8-.54Zm.23-.9.52-2-1.66,1.24Z"/><path class="cls-4" d="M136.08,22.49l.76.62-.41,4.2,2.22-2.74.77.63L136,29.44l-.63-.52.42-4.47-2.35,2.9-.78-.63Z"/><path class="cls-4" d="M141.74,27.33l1.42,1.47a2.89,2.89,0,0,1,.72,1.23,2.35,2.35,0,0,1,0,1.34,3,3,0,0,1-.82,1.26,2.88,2.88,0,0,1-1.29.76,2.35,2.35,0,0,1-1.34,0,2.9,2.9,0,0,1-1.19-.78l-1.42-1.47ZM139.87,32a1.5,1.5,0,0,0,1.17.52,2.46,2.46,0,0,0,2-1.88,1.47,1.47,0,0,0-.47-1.19l-.73-.75-2.65,2.54Z"/><path class="cls-4" d="M145.79,31.68,148,34.4l-.75.6-1.55-1.92-.9.73L146,35.3l-.76.61L144,34.42l-1.08.87,1.59,2-.75.61-2.23-2.78Z"/><path class="cls-4" d="M147.43,43.42l2.85-2.32-2.86.14,1.38-2.51-3.34,1.53-.55-.88,5-2.24.43.69L149,40.28l2.81-.19.43.69L148,44.3Z"/><path class="cls-4" d="M150.75,47.06l-.87-1.78-1.36.16-.43-.87,5.75-.65.42.85-4,4.13-.43-.87Zm.64-.66,1.46-1.47-2,.24Z"/><path class="cls-4" d="M150.62,50a3.93,3.93,0,0,1,0-.87l1-.27a4.21,4.21,0,0,0,.19,1.86,1.19,1.19,0,0,0,.38.55.53.53,0,0,0,.52,0A.59.59,0,0,0,153,51a1,1,0,0,0,.1-.44c0-.18,0-.45,0-.83a4.19,4.19,0,0,1,0-.9,1.49,1.49,0,0,1,.27-.66,1.27,1.27,0,0,1,.62-.44,1.37,1.37,0,0,1,1.23.07,2.25,2.25,0,0,1,.94,1.22,5.06,5.06,0,0,1,.23.87,6.55,6.55,0,0,1,.06.86l-1,.27a5.72,5.72,0,0,0,0-.94,3.42,3.42,0,0,0-.19-.78,1.33,1.33,0,0,0-.39-.58.46.46,0,0,0-.48-.06.52.52,0,0,0-.29.25.82.82,0,0,0-.09.4c0,.15,0,.38,0,.67a3.8,3.8,0,0,1-.13,1.53,1.37,1.37,0,0,1-.83.78,1.56,1.56,0,0,1-1.2,0,2.28,2.28,0,0,1-1-1.38A4.49,4.49,0,0,1,150.62,50Z"/><path class="cls-4" d="M152.12,54.08a3.74,3.74,0,0,1,0-.86l1-.19a4.25,4.25,0,0,0,0,1.87,1.13,1.13,0,0,0,.34.57.52.52,0,0,0,.51.09.6.6,0,0,0,.34-.23,1,1,0,0,0,.14-.43c0-.17,0-.45.06-.82a4.42,4.42,0,0,1,.11-.9,1.57,1.57,0,0,1,.32-.63,1.41,1.41,0,0,1,.65-.4,1.43,1.43,0,0,1,1.23.17,2.26,2.26,0,0,1,.83,1.29,3.87,3.87,0,0,1,.16.89,6.16,6.16,0,0,1,0,.86l-1,.2a6.45,6.45,0,0,0,.05-.94,3,3,0,0,0-.13-.8,1.21,1.21,0,0,0-.33-.6.47.47,0,0,0-.48-.1.51.51,0,0,0-.31.22,1,1,0,0,0-.12.39c0,.15,0,.38,0,.67a3.69,3.69,0,0,1-.26,1.51,1.34,1.34,0,0,1-.89.72,1.59,1.59,0,0,1-1.19-.11,2.23,2.23,0,0,1-.93-1.46A4.64,4.64,0,0,1,152.12,54.08Z"/><path class="cls-4" d="M155,60.19l-.4-1.95-1.36-.17-.2-1,5.73.78.2.92-4.94,3-.2-1Zm.79-.49,1.77-1.06-2.05-.27Z"/><path class="cls-3" d="M58.54,119.83l2.06-3-2.67.93.61-2.75-2.74,2.37L55,116.7l4.14-3.51.6.54-.66,2.69,2.61-1,.6.53-3,4.5Z"/><path class="cls-3" d="M63.31,121.9l-1.57-1.17-1.12.76-.76-.56,4.73-3.19.74.56-1.65,5.45-.77-.57Zm.27-.88.6-1.94-1.68,1.15Z"/><path class="cls-3" d="M67.45,124.61l-1.66-1-1.05.84-.81-.5,4.46-3.55.79.5L68,126.43l-.8-.5Zm.19-.89.45-2L66.5,123Z"/><path class="cls-3" d="M71.22,122.09l.87.45-2.47,4.77-.87-.45ZM71,124.83l2.93-1.34,1,.53L72,125.35l.47,3.44-1-.53Z"/><path class="cls-3" d="M76.91,124.88l1.88.72a2.9,2.9,0,0,1,1.16.78,2.36,2.36,0,0,1,.55,1.21,3.18,3.18,0,0,1-1,2.68,2.18,2.18,0,0,1-1.21.53,2.84,2.84,0,0,1-1.39-.18L75,129.91Zm.28,4.92a1.45,1.45,0,0,0,1.26,0,2,2,0,0,0,.85-1.1,2,2,0,0,0,.1-1.39,1.44,1.44,0,0,0-.92-.86l-1-.37-1.29,3.39Z"/><path class="cls-3" d="M81.94,126.73l3.3,1-.26.91-2.34-.67-.31,1.1,1.81.52-.26.91-1.81-.52-.39,1.32,2.41.69-.26.92-3.37-1Z"/><path class="cls-3" d="M89.66,132.75l-1.93-.34-.66,1.17-.93-.16,2.81-5,.92.16.94,5.63-.94-.17Zm-.15-.9-.33-2-1,1.77Z"/><path class="cls-3" d="M94.6,133.34l-1.95-.18-.56,1.22-1-.09,2.42-5.16.92.09,1.39,5.52-1-.09Zm-.22-.88-.48-2L93,132.33Z"/><path class="cls-3" d="M96.86,129.4l2,0a2,2,0,0,1,1.34.43,1.48,1.48,0,0,1,.48,1.22,1.69,1.69,0,0,1-.25.92,1.83,1.83,0,0,1-.69.56l1.17,2.27-1.09,0-1-2h0l-1,0,0,2-1,0ZM98.51,132c.73,0,1.09-.28,1.1-.86a.81.81,0,0,0-.23-.65,1.27,1.27,0,0,0-.8-.23h-.76l0,1.73Z"/><path class="cls-3" d="M101.49,129.45l2-.13a2.84,2.84,0,0,1,1.38.23,2.32,2.32,0,0,1,1,.86,3.25,3.25,0,0,1,.19,2.87,2.38,2.38,0,0,1-.87,1,3,3,0,0,1-1.35.41l-2,.13Zm2.31,4.36a1.45,1.45,0,0,0,1.13-.56,2,2,0,0,0,.31-1.36,2,2,0,0,0-.49-1.3,1.46,1.46,0,0,0-1.2-.4l-1,.07.24,3.61Z"/><path class="cls-3" d="M106.85,129l3.4-.51.14.94-2.41.36.17,1.13,1.87-.28.14.94-1.87.28.21,1.36,2.48-.37.14.94-3.48.52Z"/><path class="cls-3" d="M114.84,132.77a2.31,2.31,0,0,1-1.15-.71,3.32,3.32,0,0,1-.69-1.35,3,3,0,0,1,0-1.51,2.47,2.47,0,0,1,.71-1.19,3,3,0,0,1,1.32-.71,3.78,3.78,0,0,1,.8-.12,3.08,3.08,0,0,1,.71,0l.14.94a3.19,3.19,0,0,0-1.41.05,1.58,1.58,0,0,0-1.12.81,1.92,1.92,0,0,0-.09,1.39,2.05,2.05,0,0,0,.76,1.21,1.51,1.51,0,0,0,1.33.18,3.61,3.61,0,0,0,.69-.27l-.24-.93-.72.19-.2-.79,1.66-.43.61,2.32a3.12,3.12,0,0,1-.67.47,4.28,4.28,0,0,1-.93.36A2.81,2.81,0,0,1,114.84,132.77Z"/><path class="cls-3" d="M117.42,126.73l1.85-.65a2.07,2.07,0,0,1,1.42-.06,1.49,1.49,0,0,1,.87,1,1.52,1.52,0,0,1-.37,1.71l1.89,1.72-1,.37-1.64-1.54h0l-.9.32.66,1.88-.92.33Zm2.46,1.85c.68-.24.92-.64.72-1.19a.81.81,0,0,0-.44-.52,1.2,1.2,0,0,0-.82.06l-.72.25.58,1.64Z"/><path class="cls-3" d="M124.77,129.45a2.52,2.52,0,0,1-1.27-.51,3,3,0,0,1-.91-1.18,3.1,3.1,0,0,1-.3-1.48,2.44,2.44,0,0,1,.45-1.28,2.68,2.68,0,0,1,1.1-.88,2.71,2.71,0,0,1,1.38-.25,2.47,2.47,0,0,1,1.27.51,3,3,0,0,1,.91,1.18,3.1,3.1,0,0,1,.3,1.48,2.63,2.63,0,0,1-.45,1.28,2.68,2.68,0,0,1-1.1.88A2.71,2.71,0,0,1,124.77,129.45Zm1.87-2.07a2,2,0,0,0-.17-1.39,2,2,0,0,0-.94-1,1.66,1.66,0,0,0-2.18,1,2,2,0,0,0,.17,1.39,2,2,0,0,0,.94,1,1.66,1.66,0,0,0,2.18-1Z"/><path class="cls-3" d="M126.92,122.75l3-1.69.47.83-2.12,1.19.56,1,1.65-.92.46.83-1.64.92.67,1.2,2.19-1.23.46.83-3.06,1.72Z"/><path class="cls-3" d="M130.56,120.68l.8-.54,3.84,1.59-1.94-2.87.82-.55,3,4.45-.67.45-4.09-1.68,2.06,3-.82.55Z"/><path class="cls-3" d="M134.91,117.67l2.68-2.14.6.74-1.9,1.52.71.89,1.47-1.18.6.75-1.48,1.17.86,1.08,2-1.57.59.75-2.74,2.19Z"/><path class="cls-3" d="M138.18,115l1.44-1.33a2,2,0,0,1,1.27-.62,1.47,1.47,0,0,1,1.19.55,1.53,1.53,0,0,1,.45.83,1.69,1.69,0,0,1-.1.88l2.42.83-.8.75-2.12-.76,0,0-.7.65,1.36,1.46-.72.67Zm3,.72c.53-.49.59-1,.2-1.38a.8.8,0,0,0-.62-.3,1.15,1.15,0,0,0-.73.38l-.56.52,1.18,1.27Z"/><g class="cls-8"><rect class="cls-9" x="27.94" y="77.65" width="145.42" height="31.94"/></g><polygon class="cls-4" points="76.32 69.13 90.82 46.67 84.17 35.27 75.5 46.17 78.79 46.17 75.5 51.62 70.88 46.4 65.94 54.25 68.91 54.25 64.84 61.12 68.14 61.12 62.98 69.13 76.32 69.13"/><polygon class="cls-4" points="123.05 69.13 108.55 46.67 115.2 35.27 123.87 46.17 120.58 46.17 123.87 51.62 128.48 46.4 133.43 54.25 130.46 54.25 134.53 61.12 131.23 61.12 136.39 69.13 123.05 69.13"/><polygon class="cls-3" points="73.02 78.72 94.06 78.72 94.06 69.08 105.22 69.08 105.22 78.72 126.34 78.72 126.34 72.39 99.64 33.4 73.02 72.37 73.02 78.72"/><rect class="cls-4" y="68.68" width="200" height="36.53"/><polygon class="cls-4" points="84.69 68.81 96.52 68.81 96.52 63.39 102.8 63.39 102.8 68.81 114.68 68.81 114.68 65.25 99.66 43.32 84.69 65.23 84.69 68.81"/><rect class="cls-4" x="90.2" y="52.14" width="3.6" height="6.2"/><path class="cls-3" d="M6.55,80h4.12a4.9,4.9,0,0,1,2.78.81,5.39,5.39,0,0,1,1.91,2.32,9.66,9.66,0,0,1,0,7.17,5.39,5.39,0,0,1-1.91,2.32,4.9,4.9,0,0,1-2.78.8H6.55ZM10.67,91.3a2.44,2.44,0,0,0,2.2-1.21,8,8,0,0,0,0-6.71,2.42,2.42,0,0,0-2.2-1.21H8.77V91.3Z"/><path class="cls-3" d="M17.71,80h2.22V93.44H17.71Z"/><path class="cls-3" d="M24.24,82.17H21.18V80h8.34v2.15H26.46V93.44H24.24Z"/><path class="cls-3" d="M34.29,80h2.22V93.44H34.29Z"/><path class="cls-3" d="M40.05,93.49a6.77,6.77,0,0,1-1.7-.6l.27-2.61a7,7,0,0,0,3.53,1.07A2.18,2.18,0,0,0,43.51,91a1.25,1.25,0,0,0,.5-1.06,1.64,1.64,0,0,0-.25-.9A2.63,2.63,0,0,0,43,88.3a12.9,12.9,0,0,0-1.54-.84,7,7,0,0,1-2.36-1.63,3.36,3.36,0,0,1-.73-2.26,3.78,3.78,0,0,1,.51-2,3.52,3.52,0,0,1,1.47-1.36,5.09,5.09,0,0,1,2.29-.49,7.69,7.69,0,0,1,3.31.79l-.23,2.53a10.85,10.85,0,0,0-1.7-.72,5.28,5.28,0,0,0-1.56-.24,2,2,0,0,0-1.28.35,1.2,1.2,0,0,0-.45,1,1.37,1.37,0,0,0,.29.88,3.06,3.06,0,0,0,.72.61q.44.26,1.56.81a7.26,7.26,0,0,1,2.35,1.73,3.49,3.49,0,0,1,.74,2.32,3.66,3.66,0,0,1-1.16,2.84,4.63,4.63,0,0,1-3.21,1A8.64,8.64,0,0,1,40.05,93.49Z"/><path class="cls-3" d="M51.54,80h7.15v2.15H53.76v3.16h3.8v2.15h-3.8V91.3h5.1v2.14H51.54Z"/><path class="cls-3" d="M60.58,80h7.16v2.15H62.8v3.16h3.81v2.15H62.8V91.3h5.1v2.14H60.58Z"/><path class="cls-3" d="M69.63,80H71.9l4.23,8.4V80h2.22V93.44H76.4l-4.55-8.93v8.93H69.63Z"/><path class="cls-3" d="M84.26,80h2.27l4.23,8.4V80H93V93.44H91l-4.55-8.93v8.93H84.26Z"/><path class="cls-3" d="M100.86,90.24H97.24l-.88,3.2H94.14L98,80h2L104,93.44h-2.22Zm-.59-2.15L99,83.55l-1.22,4.54Z"/><path class="cls-3" d="M106.3,82.17h-3.06V80h8.34v2.15h-3.06V93.44H106.3Z"/><path class="cls-3" d="M114,92.26a6.21,6.21,0,0,1-1.15-4V80h2.22v7.61a6.11,6.11,0,0,0,.5,2.77,2.25,2.25,0,0,0,3.67,0,6.13,6.13,0,0,0,.49-2.77V80h2.22v8.25a6.21,6.21,0,0,1-1.15,4,4.71,4.71,0,0,1-6.8,0Z"/><path class="cls-3" d="M125.26,92.26a6.27,6.27,0,0,1-1.15-4V80h2.22v7.61a6.11,6.11,0,0,0,.5,2.77,2.25,2.25,0,0,0,3.67,0,6.13,6.13,0,0,0,.49-2.77V80h2.22v8.25a6.27,6.27,0,0,1-1.14,4,4.72,4.72,0,0,1-6.81,0Z"/><path class="cls-3" d="M135.41,80h3.72a4.55,4.55,0,0,1,3.13,1,4,4,0,0,1,1.13,3.13,4.74,4.74,0,0,1-.48,2.19,3.49,3.49,0,0,1-1.33,1.46L144,93.44h-2.49l-2.07-5h-1.83v5h-2.22Zm3.52,6.41a2.31,2.31,0,0,0,1.61-.52,2.81,2.81,0,0,0,0-3.34,2.3,2.3,0,0,0-1.61-.51h-1.3v4.37Z"/><path class="cls-3" d="M145.28,80h2.22v5.31h4.73V80h2.22V93.44h-2.22V87.63H147.5v5.81h-2.22Z"/><path class="cls-3" d="M157.89,92.26a6.27,6.27,0,0,1-1.15-4V80H159v7.61a6.11,6.11,0,0,0,.5,2.77,2.25,2.25,0,0,0,3.67,0,6.13,6.13,0,0,0,.49-2.77V80h2.22v8.25a6.27,6.27,0,0,1-1.14,4,4.72,4.72,0,0,1-6.81,0Z"/><path class="cls-3" d="M168,80h2.22V93.44H168Z"/><path class="cls-3" d="M173.79,93.49a7,7,0,0,1-1.71-.6l.28-2.61a7,7,0,0,0,3.53,1.07,2.2,2.2,0,0,0,1.36-.37,1.24,1.24,0,0,0,.49-1.06,1.63,1.63,0,0,0-.24-.9,2.9,2.9,0,0,0-.78-.72,13.75,13.75,0,0,0-1.54-.84,7,7,0,0,1-2.36-1.63,3.36,3.36,0,0,1-.74-2.26,3.78,3.78,0,0,1,.51-2,3.49,3.49,0,0,1,1.48-1.36,5.06,5.06,0,0,1,2.29-.49,7.72,7.72,0,0,1,3.31.79l-.23,2.53a10.54,10.54,0,0,0-1.71-.72,5.17,5.17,0,0,0-1.55-.24,2,2,0,0,0-1.28.35,1.2,1.2,0,0,0-.45,1,1.37,1.37,0,0,0,.29.88,2.71,2.71,0,0,0,.72.61q.42.26,1.56.81a7.26,7.26,0,0,1,2.35,1.73,3.55,3.55,0,0,1,.74,2.32,3.63,3.63,0,0,1-1.17,2.84,4.59,4.59,0,0,1-3.2,1A8.58,8.58,0,0,1,173.79,93.49Z"/><path class="cls-3" d="M180.49,94.67a1.15,1.15,0,0,0,.87-.28,1.34,1.34,0,0,0,.26-.93V80h2.22V93.9a2.79,2.79,0,0,1-.75,2.13,2.85,2.85,0,0,1-2.05.71h-.39Z"/><path class="cls-3" d="M186.17,80h7.15v2.15h-4.93v3.16h3.8v2.15h-3.8V91.3h5.1v2.14h-7.32Z"/><path class="cls-10" d="M103,107.45Z"/><ellipse class="cls-6" cx="99.98" cy="107.6" rx="10.18" ry="10.19"/><polygon class="cls-4" points="97.59 108.5 97.66 111.94 101.17 111.8 101.13 108.22 97.59 108.5"/><path class="cls-4" d="M99.44,105.75c-.4.5-1.33,1.67-2,2.43l3.83-.17c-.33-.35-.61-.67-.61-.67Z"/><path class="cls-4" d="M103.25,103.67a6.34,6.34,0,0,1,.54-3.21c-10.25,4.23-11.56,11.4-6.05,14.26l-.56,2.21h1.27s-.11-1.19-.11-2.18C108.59,113.05,103.43,105.35,103.25,103.67Zm-1.81,4.51.07,4.12-4.25,0,0-4a5.56,5.56,0,0,1-.75.66c.15-.35,2.71-3.84,2.71-3.84l.18-.23.2.21.1.11h0l1.32,1.74s1,1.54,1.13,1.89A7.3,7.3,0,0,1,101.44,108.18Z"/></g></g></svg>